HIERARCHY
ROOT Hips
{
	OFFSET 0.00000 0.00000 0.00000
	CHANNELS 6 Xposition Yposition Zposition Yrotation Zrotation Xrotation 
	JOINT Lumbar
	{
		OFFSET 0 0 0
		CHANNELS 3 Zrotation Xrotation Yrotation
		JOINT Neck
		{
			OFFSET 0.00 0.2701 0.00
			CHANNELS 3 Zrotation Xrotation Yrotation
			End Site
			{
				OFFSET 0.00 0.1379 0.00
			}
		}
		JOINT RightShoulder
		{
			OFFSET 0.0119 0.2289 0.1181
			CHANNELS 3 Zrotation Xrotation Yrotation
			JOINT RightElbow
			{
				OFFSET 0.00 -0.1475 0.00
				CHANNELS 2 Zrotation Yrotation
				JOINT RightWrist
				{
					OFFSET 0.00 -0.1605 0.00
					CHANNELS 2 Zrotation Xrotation
					End Site
					{
						OFFSET 0.0040 -0.1068 0.0006
					}
				}
			}
		}
		JOINT LeftShoulder
		{
			OFFSET 0.0119 0.2289 -0.1181
			CHANNELS 3 Zrotation Xrotation Yrotation
			JOINT LeftElbow
			{
				OFFSET 0.00 -0.1475 0.00
				CHANNELS 2 Zrotation Yrotation
				JOINT LeftWrist
				{
					OFFSET 0.00 -0.1605 0.00
					CHANNELS 2 Zrotation Xrotation
					End Site
					{
						OFFSET 0.0040 -0.1068 -0.0006
					}
				}
			}
		}
	}
	JOINT RightHip
	{
		OFFSET 0.0316 -0.0424 0.0458
		CHANNELS 3 Zrotation Xrotation Yrotation
		JOINT RightKnee
		{
			OFFSET 0.00 -0.2438 0.00
			CHANNELS 1 Zrotation
			JOINT RightAnkle
			{
				OFFSET 0.00 -0.2449 0.00
				CHANNELS 3 Zrotation Xrotation Yrotation
				End Site
				{
					OFFSET 0.1237 -0.0542 0.0051
				}
			}
		}
	}
	JOINT LeftHip
	{
		OFFSET 0.0316 -0.0424 -0.0458
		CHANNELS 3 Zrotation Xrotation Yrotation
		JOINT LeftKnee
		{
			OFFSET 0.00 -0.2438 0.00
			CHANNELS 1 Zrotation
			JOINT LeftAnkle
			{
				OFFSET 0.00 -0.2449 0.00
				CHANNELS 3 Zrotation Xrotation Yrotation
				End Site
				{
					OFFSET 0.1237 -0.0542 -0.0051
				}
			}
		}
	}
}
MOTION
Frames: 22
Frame Time: 0.02
-0.02587 -0.00441 0.09231 39.08128 -32.52994 -8.42397 49.24252 2.68008 -2.82153 -1.97173 7.12358 -0.82986 30.10332 -46.10859 -25.94006 94.7685 81.99606 1.41443 -2.62183 -17.96421 14.15748 14.20513 122.97491 -95.51565 11.30426 0.07826 47.52369 -0.3276 -7.83407 -20.38071 -6.71414 -2.80116 -2.08943 49.54408 3.78827 2.15676 -24.78489 -7.16625 1.76927 1.55811
-0.02576 -0.00436 0.09226 38.57103 -32.72909 -8.3715 49.26702 2.76201 -3.36495 -1.76559 7.70016 -0.82993 32.57056 -47.63572 -27.80893 93.82117 81.9272 1.55665 -2.81825 -19.14655 14.25464 15.21652 123.3911 -95.68827 11.70788 0.12763 47.79881 -0.32784 -7.79858 -20.37116 -6.71033 -2.73382 -2.05174 49.72822 3.86552 2.56849 -24.79301 -7.15424 1.79249 1.57027
-0.02566 -0.00432 0.09219 38.01317 -32.95125 -8.29769 49.30941 2.89753 -3.90664 -1.46753 8.10548 -0.83002 35.03478 -48.79776 -29.61471 92.80619 81.82146 1.55392 -3.0059 -20.32019 14.39054 16.19321 123.79337 -95.77072 12.02102 0.17424 48.11032 -0.33022 -7.68742 -20.36034 -6.71139 -2.66807 -2.01558 49.93356 3.96135 3.12216 -24.80243 -7.14803 1.80654 1.57648
-0.02556 -0.00428 0.09213 37.47952 -33.15841 -8.23295 49.34409 3.0077 -4.44588 -1.22372 8.58096 -0.8301 37.41929 -50.11729 -31.44066 91.83752 81.73313 1.61452 -3.19393 -21.47527 14.50254 17.17358 124.19413 -95.8981 12.37148 0.2197 48.39973 -0.33052 -7.60193 -20.35002 -6.71016 -2.60295 -1.97951 50.12412 4.04298 3.58785 -24.81155 -7.13874 1.82696 1.58682
-0.02547 -0.00424 0.09208 36.93076 -33.3855 -8.17029 49.37648 3.12322 -5.00074 -0.92511 9.08966 -0.83018 40.16113 -51.48029 -33.3039 90.79128 81.64073 1.68913 -3.39887 -22.7326 14.63927 18.21241 124.63006 -96.03598 12.74979 0.27139 48.71391 -0.33541 -7.55285 -20.33985 -6.70913 -2.53153 -1.9398 50.33691 4.14788 4.14797 -24.81954 -7.13095 1.83896 1.59176
-0.02535 -0.0042 0.092 36.40386 -33.57584 -8.09846 49.41789 3.23997 -5.5216 -0.72038 9.48694 -0.83025 42.14741 -52.65894 -35.07184 89.89762 81.549 1.69911 -3.56556 -23.76945 14.73183 19.11735 124.98811 -96.13555 13.04829 0.3088 48.98428 -0.33158 -7.41183 -20.32921 -6.70891 -2.47368 -1.90807 50.5079 4.20945 4.54843 -24.83016 -7.1216 1.86589 1.60619
-0.02514 -0.00415 0.09183 35.94874 -33.66444 -8.00649 49.48193 3.34604 -5.95246 -0.78725 9.63274 -0.83027 42.10769 -53.46705 -36.61791 89.41178 81.46261 1.56322 -3.63244 -24.23378 14.72614 19.67341 125.14137 -95.95443 13.09426 0.33482 49.12934 -0.29954 -7.01364 -20.31676 -6.70927 -2.45506 -1.89935 50.56276 4.14234 4.45352 -24.84757 -7.10584 1.93747 1.64953
-0.02489 -0.00412 0.09162 35.51822 -33.71436 -7.90613 49.55394 3.4516 -6.34821 -0.95328 9.66916 -0.83026 41.296 -54.09204 -38.06557 89.08931 81.37922 1.3674 -3.66023 -24.47045 14.67017 20.09253 125.2156 -95.76354 13.06933 0.34303 49.22819 -0.25926 -6.52905 -20.30401 -6.71037 -2.4498 -1.89847 50.57415 4.03175 4.19648 -24.86756 -7.08849 2.02405 1.70233
-0.02467 -0.00408 0.09144 35.07676 -33.77826 -7.80972 49.62131 3.55768 -6.75759 -1.08143 9.74707 -0.83027 40.79629 -54.76888 -39.54146 88.71223 81.29829 1.20031 -3.70338 -24.78725 14.61482 20.56561 125.32087 -95.70588 13.11194 0.34149 49.34492 -0.22511 -6.09848 -20.29199 -6.71142 -2.4371 -1.89318 50.60226 3.9443 4.02792 -24.88649 -7.0723 2.10285 1.74988
-0.02442 -0.00403 0.09123 34.63123 -33.8576 -7.71197 49.69443 3.66396 -7.17701 -1.17827 9.85601 -0.83027 40.45738 -55.56779 -41.0847 88.24721 81.20027 1.02161 -3.75659 -25.19874 14.65034 21.07333 125.44485 -95.12156 13.00863 0.41229 49.47561 -0.18106 -5.6043 -20.27757 -6.71138 -2.43006 -1.8914 50.64319 3.84386 3.80457 -24.90513 -7.05436 2.18541 1.80119
-0.02422 -0.004 0.09106 34.20231 -33.89599 -7.61532 49.75617 3.76959 -7.56689 -1.36223 9.87368 -0.83027 39.60432 -56.07083 -42.46517 88.00825 81.13863 0.85513 -3.77946 -25.36353 14.4895 21.47577 125.51304 -95.60857 13.18596 0.33173 49.56638 -0.15552 -5.22147 -20.2679 -6.71378 -2.41461 -1.88429 50.64777 3.75909 3.6515 -24.92482 -7.03973 2.26381 1.84707
-0.02413 -0.00404 0.09095 33.80041 -33.82492 -7.524 49.79399 3.868 -7.88662 -1.78742 9.69134 -0.8303 37.48384 -55.82734 -43.41943 88.32685 81.17989 0.73271 -3.72936 -24.86314 13.7531 21.62896 125.43098 -99.26701 14.21981 -0.19316 49.55282 -0.18428 -5.18201 -20.27324 -6.72226 -2.37084 -1.8593 50.55442 3.73573 3.76233 -24.94796 -7.03376 2.32687 1.87483
-0.02409 -0.00409 0.09087 33.41756 -33.71507 -7.43431 49.81843 3.96634 -8.17745 -2.29253 9.41687 -0.83033 34.87909 -55.28943 -44.21335 88.87226 81.2568 0.62513 -3.64958 -24.12917 12.82939 21.67915 125.29828 -103.967 15.52666 -0.86464 49.50154 -0.23171 -5.25562 -20.28305 -6.73324 -2.31851 -1.82891 50.42752 3.72841 3.9438 -24.9718 -7.03133 2.38516 1.8969
-0.02403 -0.00413 0.09079 33.03402 -33.62654 -7.34359 49.84244 4.06829 -8.47955 -2.74533 9.16914 -0.83036 32.52039 -54.87132 -45.08207 89.33221 81.31605 0.51568 -3.58304 -23.52898 12.02088 21.77203 125.19924 -108.04959 16.66713 -1.44801 49.47083 -0.26982 -5.26772 -20.28962 -6.74337 -2.27125 -1.80175 50.32108 3.70839 4.07158 -24.99461 -7.02782 2.44599 1.92223
-0.02394 -0.00418 0.09068 32.61556 -33.52058 -7.25304 49.89339 4.15593 -8.7878 -3.26962 8.98219 -0.8304 30.02636 -54.50574 -45.94083 89.72511 81.38338 0.38784 -3.51752 -22.80672 11.0827 21.87937 125.05321 -112.73143 17.98484 -2.12008 49.42391 -0.31119 -5.31796 -20.30127 -6.7523 -2.21934 -1.77152 50.19064 3.7086 4.28217 -25.02068 -7.02201 2.50636 1.94536
-0.02394 -0.00421 0.09064 32.27666 -33.44281 -7.16357 49.88601 4.27237 -9.07744 -3.66198 8.64718 -0.83043 27.7077 -53.9632 -46.78145 90.30733 81.44 0.29716 -3.44166 -22.28305 10.37198 21.93159 124.99317 -116.42333 18.99776 -2.6453 49.40257 -0.35027 -5.31868 -20.30343 -6.76433 -2.1751 -1.7464 50.1034 3.67242 4.34258 -25.03988 -7.02188 2.56564 1.97116
-0.02423 -0.00421 0.09082 32.13113 -33.4471 -7.06882 49.71131 4.47655 -9.31737 -3.67703 7.93541 -0.83045 26.00656 -53.00515 -47.62883 91.37471 81.47566 0.35194 -3.3593 -22.39159 10.32507 21.87654 125.19024 -117.03348 19.11417 -2.70025 49.45924 -0.37875 -5.13847 -20.27816 -6.78419 -2.15263 -1.73602 50.13816 3.52026 3.94164 -25.04184 -7.03618 2.62902 2.00949
-0.02462 -0.00419 0.09107 32.06929 -33.482 -6.97662 49.47997 4.70799 -9.54042 -3.55535 7.07675 -0.83047 24.49826 -51.87962 -48.46015 92.621 81.49436 0.4347 -3.2652 -22.7031 10.51546 21.76612 125.47414 -116.62818 18.91256 -2.60747 49.5432 -0.40417 -4.90782 -20.24325 -6.80707 -2.1385 -1.73112 50.21851 3.33324 3.39304 -25.0365 -7.05614 2.69028 2.04996
-0.02495 -0.00418 0.0913 31.98272 -33.50693 -6.88842 49.28092 4.92181 -9.77532 -3.49085 6.27944 -0.83048 22.89777 -50.83136 -49.28843 93.77232 81.51164 0.4752 -3.16673 -22.90671 10.60436 21.66934 125.71455 -116.75002 18.84907 -2.6014 49.61657 -0.43093 -4.71181 -20.2128 -6.82865 -2.12136 -1.72408 50.28219 3.17007 2.93255 -25.03322 -7.07376 2.74853 2.08694
-0.02532 -0.00417 0.09149 31.83913 -33.51504 -6.77842 49.05428 5.15846 -9.99291 -3.44805 5.501 -0.8305 21.30522 -49.76901 -50.15691 94.98775 81.57576 0.64316 -3.10737 -23.17262 10.66077 21.61934 125.97221 -116.63402 18.82204 -2.51857 49.68236 -0.45889 -4.47111 -20.18204 -6.85006 -2.10024 -1.71517 50.3288 2.97388 2.38721 -25.03521 -7.09052 2.82342 2.13432
-0.02564 -0.00415 0.09178 31.83588 -33.56448 -6.71449 48.8712 5.3531 -10.24123 -3.32915 4.65042 -0.83052 19.74065 -48.6986 -50.93716 96.11114 81.52895 0.54929 -2.96519 -23.3544 10.84254 21.45784 126.21267 -116.75485 18.64008 -2.5577 49.76912 -0.48297 -4.30894 -20.14977 -6.87242 -2.08998 -1.71179 50.42069 2.83764 1.9808 -25.02457 -7.11038 2.8632 2.16066
-0.02584 -0.00411 0.09229 32.18272 -33.73352 -6.7766 48.82775 5.43294 -10.59237 -3.01029 3.63048 -0.83052 18.27641 -47.66078 -51.50158 96.91752 81.25976 -0.24783 -2.58861 -23.30558 11.32229 21.02231 126.40654 -117.79002 18.10168 -2.97479 49.92291 -0.50054 -4.38544 -20.11398 -6.89734 -2.10346 -1.72001 50.63989 2.87835 2.00985 -24.98004 -7.13729 2.80662 2.1282
